<mxfile host="app.diagrams.net" modified="2022-04-24T07:02:05.624Z" agent="5.0 (Windows NT 10.0; Win64; x64) AppleWebKit/537.36 (KHTML, like Gecko) Chrome/100.0.4896.127 Safari/537.36" etag="1htTdLBr9G1TYKeX1juG" version="17.4.6" type="github">
  <diagram id="yPwh9b5Uh2-8ER7DVVLh" name="Page-1">
    <mxGraphModel dx="1860" dy="1003" grid="1" gridSize="10" guides="1" tooltips="1" connect="1" arrows="1" fold="1" page="1" pageScale="1" pageWidth="850" pageHeight="1100" math="0" shadow="0">
      <root>
        <mxCell id="0" />
        <mxCell id="1" parent="0" />
        <mxCell id="P6R2poLrGHz8cKsi2mWN-1" value="&lt;font style=&quot;font-size: 23px&quot;&gt;25&lt;/font&gt;" style="ellipse;whiteSpace=wrap;html=1;aspect=fixed;fontSize=12;" vertex="1" parent="1">
          <mxGeometry x="300" y="80" width="60" height="60" as="geometry" />
        </mxCell>
        <mxCell id="P6R2poLrGHz8cKsi2mWN-2" value="&lt;font style=&quot;font-size: 23px&quot;&gt;17&lt;/font&gt;" style="ellipse;whiteSpace=wrap;html=1;aspect=fixed;fontSize=12;" vertex="1" parent="1">
          <mxGeometry x="230" y="170" width="60" height="60" as="geometry" />
        </mxCell>
        <mxCell id="P6R2poLrGHz8cKsi2mWN-3" value="&lt;font&gt;&lt;font style=&quot;font-size: 23px&quot;&gt;18&lt;/font&gt;&lt;br&gt;&lt;/font&gt;" style="ellipse;whiteSpace=wrap;html=1;aspect=fixed;fontSize=12;" vertex="1" parent="1">
          <mxGeometry x="365" y="170" width="60" height="60" as="geometry" />
        </mxCell>
        <mxCell id="P6R2poLrGHz8cKsi2mWN-4" value="&lt;font style=&quot;font-size: 23px&quot;&gt;12&lt;/font&gt;" style="ellipse;whiteSpace=wrap;html=1;aspect=fixed;fontSize=12;" vertex="1" parent="1">
          <mxGeometry x="170" y="260" width="60" height="60" as="geometry" />
        </mxCell>
        <mxCell id="P6R2poLrGHz8cKsi2mWN-5" value="&lt;font style=&quot;font-size: 23px&quot;&gt;14&lt;/font&gt;" style="ellipse;whiteSpace=wrap;html=1;aspect=fixed;fontSize=12;" vertex="1" parent="1">
          <mxGeometry x="260" y="260" width="60" height="60" as="geometry" />
        </mxCell>
        <mxCell id="P6R2poLrGHz8cKsi2mWN-6" value="&lt;font style=&quot;font-size: 23px&quot;&gt;15&lt;/font&gt;" style="ellipse;whiteSpace=wrap;html=1;aspect=fixed;fontSize=12;" vertex="1" parent="1">
          <mxGeometry x="340" y="260" width="60" height="60" as="geometry" />
        </mxCell>
        <mxCell id="P6R2poLrGHz8cKsi2mWN-7" value="&lt;font style=&quot;font-size: 23px&quot;&gt;16&lt;/font&gt;" style="ellipse;whiteSpace=wrap;html=1;aspect=fixed;fontSize=12;" vertex="1" parent="1">
          <mxGeometry x="430" y="260" width="60" height="60" as="geometry" />
        </mxCell>
        <mxCell id="P6R2poLrGHz8cKsi2mWN-8" value="" style="endArrow=none;html=1;rounded=0;fontSize=23;entryX=0.5;entryY=1;entryDx=0;entryDy=0;" edge="1" parent="1" target="P6R2poLrGHz8cKsi2mWN-1">
          <mxGeometry width="50" height="50" relative="1" as="geometry">
            <mxPoint x="400" y="170" as="sourcePoint" />
            <mxPoint x="450" y="120" as="targetPoint" />
          </mxGeometry>
        </mxCell>
        <mxCell id="P6R2poLrGHz8cKsi2mWN-9" value="" style="endArrow=none;html=1;rounded=0;fontSize=23;exitX=0.5;exitY=0;exitDx=0;exitDy=0;" edge="1" parent="1" source="P6R2poLrGHz8cKsi2mWN-7">
          <mxGeometry width="50" height="50" relative="1" as="geometry">
            <mxPoint x="480" y="260" as="sourcePoint" />
            <mxPoint x="400" y="230" as="targetPoint" />
          </mxGeometry>
        </mxCell>
        <mxCell id="P6R2poLrGHz8cKsi2mWN-10" value="" style="endArrow=none;html=1;rounded=0;fontSize=23;entryX=0.348;entryY=0.993;entryDx=0;entryDy=0;exitX=1;exitY=0;exitDx=0;exitDy=0;entryPerimeter=0;" edge="1" parent="1" source="P6R2poLrGHz8cKsi2mWN-2" target="P6R2poLrGHz8cKsi2mWN-1">
          <mxGeometry width="50" height="50" relative="1" as="geometry">
            <mxPoint x="410" y="180" as="sourcePoint" />
            <mxPoint x="340" y="150" as="targetPoint" />
          </mxGeometry>
        </mxCell>
        <mxCell id="P6R2poLrGHz8cKsi2mWN-11" value="" style="endArrow=none;html=1;rounded=0;fontSize=23;entryX=0.285;entryY=0.937;entryDx=0;entryDy=0;exitX=1;exitY=0;exitDx=0;exitDy=0;entryPerimeter=0;" edge="1" parent="1" target="P6R2poLrGHz8cKsi2mWN-2">
          <mxGeometry width="50" height="50" relative="1" as="geometry">
            <mxPoint x="210.2132034355966" y="262.7867965644034" as="sourcePoint" />
            <mxPoint x="249.87999999999988" y="223.58000000000004" as="targetPoint" />
          </mxGeometry>
        </mxCell>
        <mxCell id="P6R2poLrGHz8cKsi2mWN-12" value="" style="endArrow=none;html=1;rounded=0;fontSize=23;entryX=0.5;entryY=1;entryDx=0;entryDy=0;exitX=0.5;exitY=0;exitDx=0;exitDy=0;" edge="1" parent="1" source="P6R2poLrGHz8cKsi2mWN-5">
          <mxGeometry width="50" height="50" relative="1" as="geometry">
            <mxPoint x="340" y="260" as="sourcePoint" />
            <mxPoint x="270" y="230" as="targetPoint" />
          </mxGeometry>
        </mxCell>
        <mxCell id="P6R2poLrGHz8cKsi2mWN-13" value="" style="endArrow=none;html=1;rounded=0;fontSize=23;entryX=0.5;entryY=1;entryDx=0;entryDy=0;exitX=0.5;exitY=0;exitDx=0;exitDy=0;" edge="1" parent="1" source="P6R2poLrGHz8cKsi2mWN-6" target="P6R2poLrGHz8cKsi2mWN-3">
          <mxGeometry width="50" height="50" relative="1" as="geometry">
            <mxPoint x="300" y="270" as="sourcePoint" />
            <mxPoint x="280" y="240" as="targetPoint" />
          </mxGeometry>
        </mxCell>
        <mxCell id="P6R2poLrGHz8cKsi2mWN-14" value="" style="endArrow=none;html=1;rounded=0;fontSize=23;entryX=0.285;entryY=0.937;entryDx=0;entryDy=0;exitX=1;exitY=0;exitDx=0;exitDy=0;entryPerimeter=0;" edge="1" parent="1">
          <mxGeometry width="50" height="50" relative="1" as="geometry">
            <mxPoint x="146.2132034355966" y="352.7867965644034" as="sourcePoint" />
            <mxPoint x="183.10000000000002" y="316.22" as="targetPoint" />
          </mxGeometry>
        </mxCell>
        <mxCell id="P6R2poLrGHz8cKsi2mWN-15" value="&lt;font style=&quot;font-size: 23px&quot;&gt;27&lt;/font&gt;" style="ellipse;whiteSpace=wrap;html=1;aspect=fixed;fontSize=12;" vertex="1" parent="1">
          <mxGeometry x="120" y="340" width="60" height="60" as="geometry" />
        </mxCell>
        <mxCell id="P6R2poLrGHz8cKsi2mWN-18" value="&lt;font style=&quot;font-size: 23px&quot;&gt;25&lt;/font&gt;" style="ellipse;whiteSpace=wrap;html=1;aspect=fixed;fontSize=12;" vertex="1" parent="1">
          <mxGeometry x="700" y="70" width="60" height="60" as="geometry" />
        </mxCell>
        <mxCell id="P6R2poLrGHz8cKsi2mWN-19" value="&lt;font style=&quot;font-size: 23px&quot;&gt;17&lt;/font&gt;" style="ellipse;whiteSpace=wrap;html=1;aspect=fixed;fontSize=12;" vertex="1" parent="1">
          <mxGeometry x="630" y="160" width="60" height="60" as="geometry" />
        </mxCell>
        <mxCell id="P6R2poLrGHz8cKsi2mWN-20" value="&lt;font&gt;&lt;font style=&quot;font-size: 23px&quot;&gt;18&lt;/font&gt;&lt;br&gt;&lt;/font&gt;" style="ellipse;whiteSpace=wrap;html=1;aspect=fixed;fontSize=12;" vertex="1" parent="1">
          <mxGeometry x="765" y="160" width="60" height="60" as="geometry" />
        </mxCell>
        <mxCell id="P6R2poLrGHz8cKsi2mWN-21" value="&lt;font style=&quot;font-size: 23px&quot;&gt;27&lt;/font&gt;" style="ellipse;whiteSpace=wrap;html=1;aspect=fixed;fontSize=12;" vertex="1" parent="1">
          <mxGeometry x="570" y="250" width="60" height="60" as="geometry" />
        </mxCell>
        <mxCell id="P6R2poLrGHz8cKsi2mWN-22" value="&lt;font style=&quot;font-size: 23px&quot;&gt;14&lt;/font&gt;" style="ellipse;whiteSpace=wrap;html=1;aspect=fixed;fontSize=12;" vertex="1" parent="1">
          <mxGeometry x="660" y="250" width="60" height="60" as="geometry" />
        </mxCell>
        <mxCell id="P6R2poLrGHz8cKsi2mWN-23" value="&lt;font style=&quot;font-size: 23px&quot;&gt;15&lt;/font&gt;" style="ellipse;whiteSpace=wrap;html=1;aspect=fixed;fontSize=12;" vertex="1" parent="1">
          <mxGeometry x="740" y="250" width="60" height="60" as="geometry" />
        </mxCell>
        <mxCell id="P6R2poLrGHz8cKsi2mWN-24" value="&lt;font style=&quot;font-size: 23px&quot;&gt;16&lt;/font&gt;" style="ellipse;whiteSpace=wrap;html=1;aspect=fixed;fontSize=12;" vertex="1" parent="1">
          <mxGeometry x="830" y="250" width="60" height="60" as="geometry" />
        </mxCell>
        <mxCell id="P6R2poLrGHz8cKsi2mWN-25" value="" style="endArrow=none;html=1;rounded=0;fontSize=23;entryX=0.5;entryY=1;entryDx=0;entryDy=0;" edge="1" parent="1" target="P6R2poLrGHz8cKsi2mWN-18">
          <mxGeometry width="50" height="50" relative="1" as="geometry">
            <mxPoint x="800" y="160" as="sourcePoint" />
            <mxPoint x="850" y="110" as="targetPoint" />
          </mxGeometry>
        </mxCell>
        <mxCell id="P6R2poLrGHz8cKsi2mWN-26" value="" style="endArrow=none;html=1;rounded=0;fontSize=23;exitX=0.5;exitY=0;exitDx=0;exitDy=0;" edge="1" parent="1" source="P6R2poLrGHz8cKsi2mWN-24">
          <mxGeometry width="50" height="50" relative="1" as="geometry">
            <mxPoint x="880" y="250" as="sourcePoint" />
            <mxPoint x="800" y="220" as="targetPoint" />
          </mxGeometry>
        </mxCell>
        <mxCell id="P6R2poLrGHz8cKsi2mWN-27" value="" style="endArrow=none;html=1;rounded=0;fontSize=23;entryX=0.348;entryY=0.993;entryDx=0;entryDy=0;exitX=1;exitY=0;exitDx=0;exitDy=0;entryPerimeter=0;" edge="1" parent="1" source="P6R2poLrGHz8cKsi2mWN-19" target="P6R2poLrGHz8cKsi2mWN-18">
          <mxGeometry width="50" height="50" relative="1" as="geometry">
            <mxPoint x="810" y="170" as="sourcePoint" />
            <mxPoint x="740" y="140" as="targetPoint" />
          </mxGeometry>
        </mxCell>
        <mxCell id="P6R2poLrGHz8cKsi2mWN-28" value="" style="endArrow=none;html=1;rounded=0;fontSize=23;entryX=0.285;entryY=0.937;entryDx=0;entryDy=0;exitX=1;exitY=0;exitDx=0;exitDy=0;entryPerimeter=0;" edge="1" parent="1" target="P6R2poLrGHz8cKsi2mWN-19">
          <mxGeometry width="50" height="50" relative="1" as="geometry">
            <mxPoint x="610.2132034355966" y="252.7867965644034" as="sourcePoint" />
            <mxPoint x="649.8799999999999" y="213.58000000000004" as="targetPoint" />
          </mxGeometry>
        </mxCell>
        <mxCell id="P6R2poLrGHz8cKsi2mWN-29" value="" style="endArrow=none;html=1;rounded=0;fontSize=23;entryX=0.5;entryY=1;entryDx=0;entryDy=0;exitX=0.5;exitY=0;exitDx=0;exitDy=0;" edge="1" parent="1" source="P6R2poLrGHz8cKsi2mWN-22">
          <mxGeometry width="50" height="50" relative="1" as="geometry">
            <mxPoint x="740" y="250" as="sourcePoint" />
            <mxPoint x="670" y="220" as="targetPoint" />
          </mxGeometry>
        </mxCell>
        <mxCell id="P6R2poLrGHz8cKsi2mWN-30" value="" style="endArrow=none;html=1;rounded=0;fontSize=23;entryX=0.5;entryY=1;entryDx=0;entryDy=0;exitX=0.5;exitY=0;exitDx=0;exitDy=0;" edge="1" parent="1" source="P6R2poLrGHz8cKsi2mWN-23" target="P6R2poLrGHz8cKsi2mWN-20">
          <mxGeometry width="50" height="50" relative="1" as="geometry">
            <mxPoint x="700" y="260" as="sourcePoint" />
            <mxPoint x="680" y="230" as="targetPoint" />
          </mxGeometry>
        </mxCell>
        <mxCell id="P6R2poLrGHz8cKsi2mWN-31" value="" style="endArrow=none;html=1;rounded=0;fontSize=23;entryX=0.285;entryY=0.937;entryDx=0;entryDy=0;exitX=1;exitY=0;exitDx=0;exitDy=0;entryPerimeter=0;" edge="1" parent="1">
          <mxGeometry width="50" height="50" relative="1" as="geometry">
            <mxPoint x="546.2132034355966" y="342.7867965644034" as="sourcePoint" />
            <mxPoint x="583.0999999999999" y="306.22" as="targetPoint" />
          </mxGeometry>
        </mxCell>
        <mxCell id="P6R2poLrGHz8cKsi2mWN-32" value="&lt;font style=&quot;font-size: 23px&quot;&gt;12&lt;/font&gt;" style="ellipse;whiteSpace=wrap;html=1;aspect=fixed;fontSize=12;" vertex="1" parent="1">
          <mxGeometry x="520" y="330" width="60" height="60" as="geometry" />
        </mxCell>
        <mxCell id="P6R2poLrGHz8cKsi2mWN-33" value="&lt;font style=&quot;font-size: 23px&quot;&gt;25&lt;/font&gt;" style="ellipse;whiteSpace=wrap;html=1;aspect=fixed;fontSize=12;" vertex="1" parent="1">
          <mxGeometry x="1120" y="70" width="60" height="60" as="geometry" />
        </mxCell>
        <mxCell id="P6R2poLrGHz8cKsi2mWN-34" value="&lt;font style=&quot;font-size: 23px&quot;&gt;27&lt;/font&gt;" style="ellipse;whiteSpace=wrap;html=1;aspect=fixed;fontSize=12;" vertex="1" parent="1">
          <mxGeometry x="1050" y="160" width="60" height="60" as="geometry" />
        </mxCell>
        <mxCell id="P6R2poLrGHz8cKsi2mWN-35" value="&lt;font&gt;&lt;font style=&quot;font-size: 23px&quot;&gt;18&lt;/font&gt;&lt;br&gt;&lt;/font&gt;" style="ellipse;whiteSpace=wrap;html=1;aspect=fixed;fontSize=12;" vertex="1" parent="1">
          <mxGeometry x="1185" y="160" width="60" height="60" as="geometry" />
        </mxCell>
        <mxCell id="P6R2poLrGHz8cKsi2mWN-36" value="&lt;font style=&quot;font-size: 23px&quot;&gt;17&lt;/font&gt;" style="ellipse;whiteSpace=wrap;html=1;aspect=fixed;fontSize=12;" vertex="1" parent="1">
          <mxGeometry x="990" y="250" width="60" height="60" as="geometry" />
        </mxCell>
        <mxCell id="P6R2poLrGHz8cKsi2mWN-37" value="&lt;font style=&quot;font-size: 23px&quot;&gt;14&lt;/font&gt;" style="ellipse;whiteSpace=wrap;html=1;aspect=fixed;fontSize=12;" vertex="1" parent="1">
          <mxGeometry x="1080" y="250" width="60" height="60" as="geometry" />
        </mxCell>
        <mxCell id="P6R2poLrGHz8cKsi2mWN-38" value="&lt;font style=&quot;font-size: 23px&quot;&gt;15&lt;/font&gt;" style="ellipse;whiteSpace=wrap;html=1;aspect=fixed;fontSize=12;" vertex="1" parent="1">
          <mxGeometry x="1160" y="250" width="60" height="60" as="geometry" />
        </mxCell>
        <mxCell id="P6R2poLrGHz8cKsi2mWN-39" value="&lt;font style=&quot;font-size: 23px&quot;&gt;16&lt;/font&gt;" style="ellipse;whiteSpace=wrap;html=1;aspect=fixed;fontSize=12;" vertex="1" parent="1">
          <mxGeometry x="1250" y="250" width="60" height="60" as="geometry" />
        </mxCell>
        <mxCell id="P6R2poLrGHz8cKsi2mWN-40" value="" style="endArrow=none;html=1;rounded=0;fontSize=23;entryX=0.5;entryY=1;entryDx=0;entryDy=0;" edge="1" parent="1" target="P6R2poLrGHz8cKsi2mWN-33">
          <mxGeometry width="50" height="50" relative="1" as="geometry">
            <mxPoint x="1220" y="160" as="sourcePoint" />
            <mxPoint x="1270" y="110" as="targetPoint" />
          </mxGeometry>
        </mxCell>
        <mxCell id="P6R2poLrGHz8cKsi2mWN-41" value="" style="endArrow=none;html=1;rounded=0;fontSize=23;exitX=0.5;exitY=0;exitDx=0;exitDy=0;" edge="1" parent="1" source="P6R2poLrGHz8cKsi2mWN-39">
          <mxGeometry width="50" height="50" relative="1" as="geometry">
            <mxPoint x="1300" y="250" as="sourcePoint" />
            <mxPoint x="1220" y="220" as="targetPoint" />
          </mxGeometry>
        </mxCell>
        <mxCell id="P6R2poLrGHz8cKsi2mWN-42" value="" style="endArrow=none;html=1;rounded=0;fontSize=23;entryX=0.348;entryY=0.993;entryDx=0;entryDy=0;exitX=1;exitY=0;exitDx=0;exitDy=0;entryPerimeter=0;" edge="1" parent="1" source="P6R2poLrGHz8cKsi2mWN-34" target="P6R2poLrGHz8cKsi2mWN-33">
          <mxGeometry width="50" height="50" relative="1" as="geometry">
            <mxPoint x="1230" y="170" as="sourcePoint" />
            <mxPoint x="1160" y="140" as="targetPoint" />
          </mxGeometry>
        </mxCell>
        <mxCell id="P6R2poLrGHz8cKsi2mWN-43" value="" style="endArrow=none;html=1;rounded=0;fontSize=23;entryX=0.285;entryY=0.937;entryDx=0;entryDy=0;exitX=1;exitY=0;exitDx=0;exitDy=0;entryPerimeter=0;" edge="1" parent="1" target="P6R2poLrGHz8cKsi2mWN-34">
          <mxGeometry width="50" height="50" relative="1" as="geometry">
            <mxPoint x="1030.2132034355964" y="252.7867965644034" as="sourcePoint" />
            <mxPoint x="1069.8799999999999" y="213.58000000000004" as="targetPoint" />
          </mxGeometry>
        </mxCell>
        <mxCell id="P6R2poLrGHz8cKsi2mWN-44" value="" style="endArrow=none;html=1;rounded=0;fontSize=23;entryX=0.5;entryY=1;entryDx=0;entryDy=0;exitX=0.5;exitY=0;exitDx=0;exitDy=0;" edge="1" parent="1" source="P6R2poLrGHz8cKsi2mWN-37">
          <mxGeometry width="50" height="50" relative="1" as="geometry">
            <mxPoint x="1160" y="250" as="sourcePoint" />
            <mxPoint x="1090" y="220" as="targetPoint" />
          </mxGeometry>
        </mxCell>
        <mxCell id="P6R2poLrGHz8cKsi2mWN-45" value="" style="endArrow=none;html=1;rounded=0;fontSize=23;entryX=0.5;entryY=1;entryDx=0;entryDy=0;exitX=0.5;exitY=0;exitDx=0;exitDy=0;" edge="1" parent="1" source="P6R2poLrGHz8cKsi2mWN-38" target="P6R2poLrGHz8cKsi2mWN-35">
          <mxGeometry width="50" height="50" relative="1" as="geometry">
            <mxPoint x="1120" y="260" as="sourcePoint" />
            <mxPoint x="1100" y="230" as="targetPoint" />
          </mxGeometry>
        </mxCell>
        <mxCell id="P6R2poLrGHz8cKsi2mWN-46" value="" style="endArrow=none;html=1;rounded=0;fontSize=23;entryX=0.285;entryY=0.937;entryDx=0;entryDy=0;exitX=1;exitY=0;exitDx=0;exitDy=0;entryPerimeter=0;" edge="1" parent="1">
          <mxGeometry width="50" height="50" relative="1" as="geometry">
            <mxPoint x="966.2132034355966" y="342.7867965644034" as="sourcePoint" />
            <mxPoint x="1003.0999999999999" y="306.22" as="targetPoint" />
          </mxGeometry>
        </mxCell>
        <mxCell id="P6R2poLrGHz8cKsi2mWN-47" value="&lt;font style=&quot;font-size: 23px&quot;&gt;12&lt;/font&gt;" style="ellipse;whiteSpace=wrap;html=1;aspect=fixed;fontSize=12;" vertex="1" parent="1">
          <mxGeometry x="940" y="330" width="60" height="60" as="geometry" />
        </mxCell>
        <mxCell id="P6R2poLrGHz8cKsi2mWN-48" value="&lt;font style=&quot;font-size: 23px&quot;&gt;27&lt;/font&gt;" style="ellipse;whiteSpace=wrap;html=1;aspect=fixed;fontSize=12;" vertex="1" parent="1">
          <mxGeometry x="1520" y="70" width="60" height="60" as="geometry" />
        </mxCell>
        <mxCell id="P6R2poLrGHz8cKsi2mWN-49" value="&lt;font style=&quot;font-size: 23px&quot;&gt;25&lt;/font&gt;" style="ellipse;whiteSpace=wrap;html=1;aspect=fixed;fontSize=12;" vertex="1" parent="1">
          <mxGeometry x="1450" y="160" width="60" height="60" as="geometry" />
        </mxCell>
        <mxCell id="P6R2poLrGHz8cKsi2mWN-50" value="&lt;font&gt;&lt;font style=&quot;font-size: 23px&quot;&gt;18&lt;/font&gt;&lt;br&gt;&lt;/font&gt;" style="ellipse;whiteSpace=wrap;html=1;aspect=fixed;fontSize=12;" vertex="1" parent="1">
          <mxGeometry x="1585" y="160" width="60" height="60" as="geometry" />
        </mxCell>
        <mxCell id="P6R2poLrGHz8cKsi2mWN-51" value="&lt;font style=&quot;font-size: 23px&quot;&gt;17&lt;/font&gt;" style="ellipse;whiteSpace=wrap;html=1;aspect=fixed;fontSize=12;" vertex="1" parent="1">
          <mxGeometry x="1390" y="250" width="60" height="60" as="geometry" />
        </mxCell>
        <mxCell id="P6R2poLrGHz8cKsi2mWN-52" value="&lt;font style=&quot;font-size: 23px&quot;&gt;14&lt;/font&gt;" style="ellipse;whiteSpace=wrap;html=1;aspect=fixed;fontSize=12;" vertex="1" parent="1">
          <mxGeometry x="1480" y="250" width="60" height="60" as="geometry" />
        </mxCell>
        <mxCell id="P6R2poLrGHz8cKsi2mWN-53" value="&lt;font style=&quot;font-size: 23px&quot;&gt;15&lt;/font&gt;" style="ellipse;whiteSpace=wrap;html=1;aspect=fixed;fontSize=12;" vertex="1" parent="1">
          <mxGeometry x="1560" y="250" width="60" height="60" as="geometry" />
        </mxCell>
        <mxCell id="P6R2poLrGHz8cKsi2mWN-54" value="&lt;font style=&quot;font-size: 23px&quot;&gt;16&lt;/font&gt;" style="ellipse;whiteSpace=wrap;html=1;aspect=fixed;fontSize=12;" vertex="1" parent="1">
          <mxGeometry x="1650" y="250" width="60" height="60" as="geometry" />
        </mxCell>
        <mxCell id="P6R2poLrGHz8cKsi2mWN-55" value="" style="endArrow=none;html=1;rounded=0;fontSize=23;entryX=0.5;entryY=1;entryDx=0;entryDy=0;" edge="1" parent="1" target="P6R2poLrGHz8cKsi2mWN-48">
          <mxGeometry width="50" height="50" relative="1" as="geometry">
            <mxPoint x="1620" y="160" as="sourcePoint" />
            <mxPoint x="1670" y="110" as="targetPoint" />
          </mxGeometry>
        </mxCell>
        <mxCell id="P6R2poLrGHz8cKsi2mWN-56" value="" style="endArrow=none;html=1;rounded=0;fontSize=23;exitX=0.5;exitY=0;exitDx=0;exitDy=0;" edge="1" parent="1" source="P6R2poLrGHz8cKsi2mWN-54">
          <mxGeometry width="50" height="50" relative="1" as="geometry">
            <mxPoint x="1700" y="250" as="sourcePoint" />
            <mxPoint x="1620" y="220" as="targetPoint" />
          </mxGeometry>
        </mxCell>
        <mxCell id="P6R2poLrGHz8cKsi2mWN-57" value="" style="endArrow=none;html=1;rounded=0;fontSize=23;entryX=0.348;entryY=0.993;entryDx=0;entryDy=0;exitX=1;exitY=0;exitDx=0;exitDy=0;entryPerimeter=0;" edge="1" parent="1" source="P6R2poLrGHz8cKsi2mWN-49" target="P6R2poLrGHz8cKsi2mWN-48">
          <mxGeometry width="50" height="50" relative="1" as="geometry">
            <mxPoint x="1630" y="170" as="sourcePoint" />
            <mxPoint x="1560" y="140" as="targetPoint" />
          </mxGeometry>
        </mxCell>
        <mxCell id="P6R2poLrGHz8cKsi2mWN-58" value="" style="endArrow=none;html=1;rounded=0;fontSize=23;entryX=0.285;entryY=0.937;entryDx=0;entryDy=0;exitX=1;exitY=0;exitDx=0;exitDy=0;entryPerimeter=0;" edge="1" parent="1" target="P6R2poLrGHz8cKsi2mWN-49">
          <mxGeometry width="50" height="50" relative="1" as="geometry">
            <mxPoint x="1430.2132034355964" y="252.7867965644034" as="sourcePoint" />
            <mxPoint x="1469.8799999999999" y="213.58000000000004" as="targetPoint" />
          </mxGeometry>
        </mxCell>
        <mxCell id="P6R2poLrGHz8cKsi2mWN-59" value="" style="endArrow=none;html=1;rounded=0;fontSize=23;entryX=0.5;entryY=1;entryDx=0;entryDy=0;exitX=0.5;exitY=0;exitDx=0;exitDy=0;" edge="1" parent="1" source="P6R2poLrGHz8cKsi2mWN-52">
          <mxGeometry width="50" height="50" relative="1" as="geometry">
            <mxPoint x="1560" y="250" as="sourcePoint" />
            <mxPoint x="1490" y="220" as="targetPoint" />
          </mxGeometry>
        </mxCell>
        <mxCell id="P6R2poLrGHz8cKsi2mWN-60" value="" style="endArrow=none;html=1;rounded=0;fontSize=23;entryX=0.5;entryY=1;entryDx=0;entryDy=0;exitX=0.5;exitY=0;exitDx=0;exitDy=0;" edge="1" parent="1" source="P6R2poLrGHz8cKsi2mWN-53" target="P6R2poLrGHz8cKsi2mWN-50">
          <mxGeometry width="50" height="50" relative="1" as="geometry">
            <mxPoint x="1520" y="260" as="sourcePoint" />
            <mxPoint x="1500" y="230" as="targetPoint" />
          </mxGeometry>
        </mxCell>
        <mxCell id="P6R2poLrGHz8cKsi2mWN-61" value="" style="endArrow=none;html=1;rounded=0;fontSize=23;entryX=0.285;entryY=0.937;entryDx=0;entryDy=0;exitX=1;exitY=0;exitDx=0;exitDy=0;entryPerimeter=0;" edge="1" parent="1">
          <mxGeometry width="50" height="50" relative="1" as="geometry">
            <mxPoint x="1366.2132034355964" y="342.7867965644034" as="sourcePoint" />
            <mxPoint x="1403.1" y="306.22" as="targetPoint" />
          </mxGeometry>
        </mxCell>
        <mxCell id="P6R2poLrGHz8cKsi2mWN-62" value="&lt;font style=&quot;font-size: 23px&quot;&gt;12&lt;/font&gt;" style="ellipse;whiteSpace=wrap;html=1;aspect=fixed;fontSize=12;" vertex="1" parent="1">
          <mxGeometry x="1340" y="330" width="60" height="60" as="geometry" />
        </mxCell>
        <mxCell id="P6R2poLrGHz8cKsi2mWN-63" value="&lt;font style=&quot;font-size: 23px&quot;&gt;48&lt;/font&gt;" style="ellipse;whiteSpace=wrap;html=1;aspect=fixed;fontSize=12;" vertex="1" parent="1">
          <mxGeometry x="290" y="460" width="60" height="60" as="geometry" />
        </mxCell>
        <mxCell id="P6R2poLrGHz8cKsi2mWN-64" value="&lt;font style=&quot;font-size: 23px&quot;&gt;38&lt;/font&gt;" style="ellipse;whiteSpace=wrap;html=1;aspect=fixed;fontSize=12;" vertex="1" parent="1">
          <mxGeometry x="220" y="550" width="60" height="60" as="geometry" />
        </mxCell>
        <mxCell id="P6R2poLrGHz8cKsi2mWN-65" value="&lt;font&gt;&lt;font style=&quot;font-size: 23px&quot;&gt;47&lt;/font&gt;&lt;br&gt;&lt;/font&gt;" style="ellipse;whiteSpace=wrap;html=1;aspect=fixed;fontSize=12;" vertex="1" parent="1">
          <mxGeometry x="355" y="550" width="60" height="60" as="geometry" />
        </mxCell>
        <mxCell id="P6R2poLrGHz8cKsi2mWN-66" value="&lt;font style=&quot;font-size: 23px&quot;&gt;32&lt;/font&gt;" style="ellipse;whiteSpace=wrap;html=1;aspect=fixed;fontSize=12;" vertex="1" parent="1">
          <mxGeometry x="160" y="640" width="60" height="60" as="geometry" />
        </mxCell>
        <mxCell id="P6R2poLrGHz8cKsi2mWN-67" value="&lt;font style=&quot;font-size: 23px&quot;&gt;33&lt;/font&gt;" style="ellipse;whiteSpace=wrap;html=1;aspect=fixed;fontSize=12;" vertex="1" parent="1">
          <mxGeometry x="250" y="640" width="60" height="60" as="geometry" />
        </mxCell>
        <mxCell id="P6R2poLrGHz8cKsi2mWN-70" value="" style="endArrow=none;html=1;rounded=0;fontSize=23;entryX=0.5;entryY=1;entryDx=0;entryDy=0;" edge="1" parent="1" target="P6R2poLrGHz8cKsi2mWN-63">
          <mxGeometry width="50" height="50" relative="1" as="geometry">
            <mxPoint x="390" y="550" as="sourcePoint" />
            <mxPoint x="440" y="500" as="targetPoint" />
          </mxGeometry>
        </mxCell>
        <mxCell id="P6R2poLrGHz8cKsi2mWN-72" value="" style="endArrow=none;html=1;rounded=0;fontSize=23;entryX=0.348;entryY=0.993;entryDx=0;entryDy=0;exitX=1;exitY=0;exitDx=0;exitDy=0;entryPerimeter=0;" edge="1" parent="1" source="P6R2poLrGHz8cKsi2mWN-64" target="P6R2poLrGHz8cKsi2mWN-63">
          <mxGeometry width="50" height="50" relative="1" as="geometry">
            <mxPoint x="400" y="560" as="sourcePoint" />
            <mxPoint x="330" y="530" as="targetPoint" />
          </mxGeometry>
        </mxCell>
        <mxCell id="P6R2poLrGHz8cKsi2mWN-73" value="" style="endArrow=none;html=1;rounded=0;fontSize=23;entryX=0.285;entryY=0.937;entryDx=0;entryDy=0;exitX=1;exitY=0;exitDx=0;exitDy=0;entryPerimeter=0;" edge="1" parent="1" target="P6R2poLrGHz8cKsi2mWN-64">
          <mxGeometry width="50" height="50" relative="1" as="geometry">
            <mxPoint x="200.21320343559637" y="642.7867965644034" as="sourcePoint" />
            <mxPoint x="239.87999999999988" y="603.58" as="targetPoint" />
          </mxGeometry>
        </mxCell>
        <mxCell id="P6R2poLrGHz8cKsi2mWN-74" value="" style="endArrow=none;html=1;rounded=0;fontSize=23;entryX=0.5;entryY=1;entryDx=0;entryDy=0;exitX=0.5;exitY=0;exitDx=0;exitDy=0;" edge="1" parent="1" source="P6R2poLrGHz8cKsi2mWN-67">
          <mxGeometry width="50" height="50" relative="1" as="geometry">
            <mxPoint x="330" y="640" as="sourcePoint" />
            <mxPoint x="260" y="610" as="targetPoint" />
          </mxGeometry>
        </mxCell>
      </root>
    </mxGraphModel>
  </diagram>
</mxfile>
